<?xml version="1.0" standalone="no"?>
<!DOCTYPE svg PUBLIC "-//W3C//DTD SVG 20010904//EN"
 "http://www.w3.org/TR/2001/REC-SVG-20010904/DTD/svg10.dtd">
<svg version="1.0" xmlns="http://www.w3.org/2000/svg"
 width="5906.000000pt" height="1614.000000pt" viewBox="0 0 5906.000000 1614.000000"
 preserveAspectRatio="xMidYMid meet">

<g transform="translate(0.000000,1614.000000) scale(0.100000,-0.100000)"
fill="#000000" stroke="none">
<path d="M0 9580 l0 -5600 14715 0 14715 0 0 5600 0 5600 -14715 0 -14715 0 0
-5600z m4160 3906 c0 -2 515 -1762 1145 -3911 630 -2148 1145 -3908 1145
-3911 0 -2 -118 -4 -262 -4 l-263 0 -39 148 c-81 304 -170 618 -268 947 -55
187 -135 462 -178 610 l-77 270 -1486 3 -1485 2 -11 -32 c-5 -18 -132 -463
-281 -988 -149 -525 -272 -956 -274 -957 -2 -2 -118 -2 -258 -1 l-255 3 1141
3912 1141 3913 283 0 c155 0 282 -2 282 -4z m5880 -19 c498 -76 844 -232 1115
-503 292 -292 468 -692 526 -1199 17 -139 16 -529 0 -660 -76 -608 -319 -1081
-713 -1388 -198 -154 -465 -282 -726 -348 -71 -18 -92 -27 -89 -39 9 -34 1188
-2783 1459 -3405 l114 -260 -285 -3 c-157 -1 -288 1 -292 5 -14 15 -1087 2574
-1410 3362 l-104 254 -119 -7 c-66 -3 -472 -6 -903 -6 l-783 0 0 -1805 0
-1805 -250 0 -250 0 0 3915 0 3916 1298 -4 c1168 -3 1308 -5 1412 -20z m5514
-5 c449 -73 761 -211 1003 -445 304 -293 475 -653 544 -1147 21 -147 18 -554
-4 -715 -34 -233 -103 -467 -193 -646 -154 -308 -444 -569 -803 -722 -36 -16
-60 -31 -55 -36 5 -5 54 -23 109 -41 55 -18 152 -59 215 -91 465 -236 757
-701 862 -1370 19 -124 22 -183 22 -424 0 -211 -4 -311 -17 -405 -57 -408
-181 -737 -384 -1023 -67 -94 -239 -271 -333 -343 -286 -217 -659 -349 -1085
-384 -79 -6 -598 -10 -1356 -10 l-1229 0 0 3915 0 3916 1283 -4 c1273 -3 1283
-3 1421 -25z m6866 -207 l0 -235 -1740 0 -1740 0 0 -1570 0 -1570 1505 0 1505
0 0 -225 0 -225 -1505 0 -1505 0 0 -1645 0 -1645 1740 0 1740 0 0 -240 0 -240
-1990 0 -1990 0 0 3915 0 3915 1990 0 1990 0 0 -235z m3734 207 c265 -43 458
-99 645 -188 179 -85 298 -169 441 -313 282 -283 444 -625 516 -1096 27 -171
27 -687 1 -853 -95 -595 -355 -1051 -767 -1344 -171 -121 -487 -262 -693 -308
-31 -7 -57 -18 -57 -24 0 -16 1066 -2509 1421 -3322 82 -188 149 -345 149
-348 0 -3 -129 -6 -287 -6 l-288 0 -394 938 c-479 1137 -838 1997 -997 2390
l-119 294 -119 -6 c-66 -3 -474 -6 -908 -6 l-788 0 0 -1805 0 -1805 -250 0
-250 0 0 3915 0 3916 1303 -4 c1295 -3 1303 -3 1441 -25z"/>
<path d="M3821 12713 c-247 -891 -792 -2803 -1096 -3848 -220 -758 -219 -754
-213 -760 2 -3 617 -4 1365 -3 l1361 3 -399 1365 c-311 1062 -669 2330 -947
3343 -2 9 -12 17 -21 17 -14 0 -25 -26 -50 -117z"/>
<path d="M7830 11369 l0 -1660 948 4 c918 3 951 4 1085 25 190 31 359 82 505
152 469 226 716 604 794 1210 15 122 15 520 -1 630 -42 297 -109 490 -237 682
-230 346 -631 556 -1158 607 -68 7 -453 11 -1023 11 l-913 0 0 -1661z"/>
<path d="M13350 11500 l0 -1541 993 4 c884 3 1003 5 1097 21 354 58 587 170
786 378 263 275 394 656 394 1149 0 409 -96 733 -297 1000 -208 276 -467 421
-898 502 -105 19 -154 20 -1092 24 l-983 4 0 -1541z"/>
<path d="M13350 7825 l0 -1685 929 0 c568 0 980 4 1058 11 404 33 708 158 949
391 289 280 439 678 460 1233 20 505 -98 927 -350 1250 -215 274 -520 429
-938 474 -62 7 -463 11 -1103 11 l-1005 0 0 -1685z"/>
<path d="M23910 11370 l0 -1661 948 4 c977 4 992 5 1209 48 473 94 842 365
1023 752 79 167 136 384 160 602 15 139 12 496 -5 630 -50 379 -177 652 -406
870 -215 206 -483 327 -864 392 -88 15 -215 17 -1082 20 l-983 4 0 -1661z"/>
<path d="M30610 14895 l0 -285 14225 0 14225 0 0 285 0 285 -14225 0 -14225 0
0 -285z"/>
<path d="M38040 13543 c-201 -16 -444 -64 -616 -124 -339 -117 -683 -342 -907
-594 -322 -363 -499 -765 -584 -1330 -17 -112 -18 -232 -18 -1860 0 -1835 -1
-1801 46 -2080 154 -924 649 -1554 1431 -1824 486 -167 1167 -184 1672 -41
283 80 554 213 771 379 94 71 280 256 365 362 190 238 338 542 420 862 92 364
92 353 88 2362 -4 1537 -6 1742 -20 1835 -97 626 -309 1061 -699 1435 -364
349 -816 554 -1347 610 -124 13 -475 18 -602 8z m487 -1248 c394 -64 722 -390
827 -825 48 -196 48 -172 44 -2005 -4 -1579 -6 -1737 -21 -1805 -35 -156 -96
-300 -171 -405 -93 -129 -285 -286 -431 -350 -316 -139 -771 -119 -1061 46
-279 160 -471 530 -513 989 -15 173 -26 3241 -12 3350 51 379 218 671 483 844
144 94 254 137 413 162 112 17 332 17 442 -1z"/>
<path d="M43800 13539 c-219 -22 -445 -71 -619 -135 -116 -43 -330 -152 -443
-226 -611 -399 -966 -1062 -1018 -1902 -13 -203 -13 -3040 0 -3277 41 -788
271 -1374 702 -1795 167 -164 290 -250 516 -363 250 -125 506 -197 822 -230
720 -76 1372 79 1855 441 477 359 770 878 873 1551 16 103 17 262 17 1962 0
1726 -1 1857 -18 1960 -139 859 -565 1459 -1283 1805 -189 91 -417 158 -666
196 -124 19 -597 27 -738 13z m607 -1258 c338 -85 630 -383 737 -754 59 -205
57 -109 54 -2052 l-3 -1780 -27 -97 c-52 -189 -139 -341 -267 -468 -241 -238
-546 -343 -904 -312 -422 38 -659 189 -831 530 -76 150 -125 316 -152 511 -15
102 -17 312 -23 1706 -3 875 -3 1636 2 1693 21 280 134 546 309 728 163 170
370 278 603 314 105 16 408 5 502 -19z"/>
<path d="M54770 13535 c-830 -95 -1487 -530 -1810 -1200 -145 -302 -208 -575
-217 -947 -13 -532 82 -919 308 -1258 118 -178 365 -404 598 -550 283 -176
748 -373 1241 -525 234 -72 506 -173 636 -235 281 -135 485 -327 588 -553 122
-266 108 -665 -34 -947 -133 -265 -328 -410 -635 -474 -282 -59 -652 -39 -919
49 -312 102 -640 362 -869 688 -34 49 -67 95 -72 103 -9 12 -107 -54 -525
-357 -283 -204 -521 -377 -529 -385 -12 -11 -1 -32 71 -141 279 -418 715 -786
1151 -972 422 -181 954 -263 1503 -233 472 27 804 105 1139 267 609 295 1000
836 1114 1544 62 377 44 863 -44 1210 -143 567 -494 975 -1104 1284 -223 114
-400 183 -811 317 -190 61 -424 141 -520 177 -579 214 -897 479 -966 803 -20
92 -14 321 11 419 39 160 114 296 228 417 130 138 275 219 479 266 81 19 123
22 318 23 195 0 240 -3 338 -23 216 -44 391 -116 567 -235 100 -68 315 -277
380 -370 22 -31 43 -57 47 -57 5 0 928 769 972 810 5 5 -12 39 -40 77 -245
347 -589 632 -959 796 -212 94 -497 168 -785 202 -189 23 -683 29 -850 10z"/>
<path d="M30610 12905 l0 -585 860 0 860 0 0 -3330 0 -3330 640 0 640 0 0
3330 0 3330 865 0 865 0 0 585 0 585 -2365 0 -2365 0 0 -585z"/>
<path d="M47730 9575 l0 -3915 2155 0 2155 0 0 610 0 610 -1515 0 -1515 0 0
3305 0 3305 -640 0 -640 0 0 -3915z"/>
<path d="M30610 4255 l0 -285 14225 0 14225 0 0 285 0 285 -14225 0 -14225 0
0 -285z"/>
<path d="M15418 2990 c-242 -39 -438 -169 -527 -352 -76 -154 -76 -156 -76
-668 0 -402 2 -463 18 -520 64 -239 228 -399 482 -472 69 -20 102 -23 240 -23
187 1 240 12 384 81 129 63 233 164 291 285 69 144 72 171 68 688 -4 446 -4
457 -27 521 -63 179 -170 300 -334 379 -56 27 -131 57 -167 65 -78 20 -273 28
-352 16z m257 -251 c162 -30 280 -133 331 -289 15 -48 18 -103 22 -433 2 -246
0 -403 -8 -450 -27 -181 -139 -307 -313 -353 -70 -18 -228 -18 -302 1 -160 42
-274 162 -305 320 -8 42 -10 189 -8 475 3 406 4 416 26 470 60 144 178 237
332 263 51 9 168 7 225 -4z"/>
<path d="M32115 2994 c-88 -13 -180 -41 -264 -80 -79 -37 -106 -56 -175 -126
-93 -95 -137 -169 -166 -284 -19 -71 -20 -112 -20 -534 0 -510 4 -544 72 -673
44 -82 146 -189 227 -237 71 -42 194 -87 265 -96 l44 -6 4 -127 c4 -111 7
-133 31 -182 36 -74 107 -140 183 -168 64 -24 206 -38 268 -27 l36 7 0 104 0
105 -72 0 c-146 1 -198 54 -201 207 l-2 76 85 18 c262 57 468 248 524 489 13
53 16 146 16 511 0 411 -2 452 -20 523 -61 241 -250 418 -512 481 -63 15 -267
27 -323 19z m291 -268 c82 -25 167 -88 214 -158 74 -111 75 -118 75 -598 0
-415 -1 -427 -23 -490 -41 -119 -130 -209 -249 -252 -71 -26 -242 -36 -326
-18 -169 35 -295 162 -327 330 -6 30 -10 221 -10 439 0 412 4 449 51 544 80
158 225 232 439 223 58 -2 128 -12 156 -20z"/>
<path d="M13000 1975 l0 -1005 135 0 135 0 0 405 0 405 328 0 c271 0 338 3
383 16 150 44 278 153 348 295 53 108 71 183 71 290 0 238 -120 444 -315 539
-47 24 -107 44 -145 50 -36 5 -258 10 -502 10 l-438 0 0 -1005z m897 740 c105
-31 197 -120 225 -218 18 -65 15 -193 -7 -257 -25 -75 -108 -158 -190 -190
-57 -23 -73 -24 -357 -28 l-298 -4 0 356 0 356 288 0 c228 0 299 -3 339 -15z"/>
<path d="M16710 2878 c15 -57 134 -509 265 -1005 l239 -903 153 0 c84 0 153 2
153 4 0 3 51 202 114 443 63 241 149 582 191 758 42 176 79 322 81 324 10 10
20 -25 94 -340 43 -184 129 -525 189 -758 61 -233 111 -426 111 -428 0 -1 69
-3 153 -3 l153 0 122 463 c67 254 187 706 265 1005 l144 542 -147 0 -146 0
-123 -502 c-68 -277 -154 -633 -191 -791 -63 -268 -74 -307 -84 -296 -2 2 -36
139 -75 304 -61 255 -301 1214 -317 1268 -5 15 -21 17 -144 17 l-138 0 -11
-32 c-14 -45 -278 -1105 -337 -1353 -26 -110 -48 -202 -50 -204 -2 -2 -7 -2
-10 2 -3 3 -52 198 -108 434 -57 235 -143 591 -192 790 l-89 363 -146 0 -147
0 28 -102z"/>
<path d="M19550 1975 l0 -1005 670 0 670 0 0 120 0 120 -535 0 -535 0 0 320 0
320 460 0 460 0 0 120 0 120 -460 0 -460 0 0 320 0 320 535 0 535 0 0 125 0
125 -670 0 -670 0 0 -1005z"/>
<path d="M21370 1976 l0 -1006 135 0 135 0 0 405 0 405 255 0 255 0 18 -37
c10 -21 88 -203 173 -405 l154 -368 149 0 c114 0 147 3 143 12 -3 7 -87 200
-187 428 -100 228 -177 416 -171 418 35 12 135 88 184 141 106 115 157 250
157 417 0 270 -146 488 -379 566 -64 22 -83 22 -543 26 l-478 3 0 -1005z m942
722 c66 -31 128 -91 160 -156 20 -41 23 -62 23 -167 0 -111 -2 -124 -27 -171
-34 -66 -104 -127 -177 -156 -53 -21 -74 -22 -353 -26 l-298 -4 0 357 0 356
308 -3 307 -3 57 -27z"/>
<path d="M23250 1975 l0 -1005 135 0 135 0 0 440 0 440 460 0 460 0 0 125 0
125 -460 0 -460 0 0 315 0 315 535 0 535 0 0 125 0 125 -670 0 -670 0 0 -1005z"/>
<path d="M24990 2260 c0 -615 2 -732 16 -798 38 -186 159 -341 335 -425 144
-69 206 -82 394 -82 185 0 258 16 398 86 107 54 229 173 276 269 68 140 65 98
68 923 l4 747 -140 0 -140 0 -3 -732 c-3 -697 -4 -735 -22 -778 -43 -101 -107
-172 -196 -219 -76 -40 -149 -56 -255 -55 -255 1 -424 141 -455 375 -5 41 -10
372 -10 742 l0 667 -135 0 -135 0 0 -720z"/>
<path d="M27010 1975 l0 -1005 675 0 675 0 0 120 0 120 -540 0 -540 0 0 885 0
885 -135 0 -135 0 0 -1005z"/>
<path d="M29670 1975 l0 -1005 670 0 670 0 0 120 0 120 -535 0 -535 0 0 320 0
320 460 0 460 0 0 120 0 120 -460 0 -460 0 0 320 0 320 535 0 535 0 0 125 0
125 -670 0 -670 0 0 -1005z"/>
<path d="M33510 2243 c0 -818 -1 -802 66 -936 51 -100 171 -219 274 -269 135
-66 213 -83 395 -83 188 0 250 13 394 82 129 62 231 162 289 284 22 46 45 108
51 137 7 35 11 296 11 787 l0 735 -135 0 -135 0 0 -696 c0 -782 0 -785 -69
-891 -61 -94 -128 -143 -238 -176 -129 -38 -294 -27 -406 28 -67 33 -135 98
-170 164 -56 102 -57 115 -57 874 l0 697 -135 0 -135 0 0 -737z"/>
<path d="M35570 1975 l0 -1005 135 0 135 0 0 1005 0 1005 -135 0 -135 0 0
-1005z"/>
<path d="M36430 1976 l0 -1006 135 0 135 0 2 403 3 402 350 5 c329 5 353 7
403 27 237 97 398 358 378 616 -12 144 -77 299 -164 391 -53 55 -145 113 -221
138 -64 22 -83 22 -543 26 l-478 3 0 -1005z m951 721 c66 -32 132 -99 162
-165 18 -39 22 -65 22 -157 0 -100 -2 -115 -28 -167 -30 -62 -86 -116 -151
-148 -68 -32 -166 -41 -431 -38 l-250 3 -3 353 -2 353 312 -3 313 -3 56 -28z"/>
<path d="M38270 1975 l0 -1005 130 0 130 0 0 679 c0 374 3 682 8 684 4 3 128
-235 277 -529 l270 -534 102 0 103 0 178 358 c98 196 216 437 262 534 46 98
87 175 92 172 4 -3 8 -311 8 -685 l0 -679 135 0 135 0 0 1005 0 1006 -127 -3
-127 -3 -190 -390 c-105 -214 -251 -519 -325 -677 -74 -159 -137 -288 -141
-288 -3 0 -66 127 -140 283 -73 155 -223 461 -332 680 l-198 397 -125 0 -125
0 0 -1005z"/>
<path d="M40640 1975 l0 -1005 675 0 675 0 0 120 0 120 -540 0 -540 0 0 320 0
320 460 0 460 0 0 120 0 120 -460 0 -460 0 0 320 0 320 538 2 537 3 3 123 3
122 -676 0 -675 0 0 -1005z"/>
<path d="M42470 1975 l0 -1005 130 0 130 0 0 745 c0 590 3 745 13 745 6 0 41
-46 77 -102 35 -57 257 -392 492 -745 l428 -643 130 0 130 0 0 1005 0 1005
-130 0 -130 0 -2 -750 c-2 -484 -7 -751 -13 -753 -5 -1 -37 40 -70 92 -33 51
-257 390 -497 752 l-437 659 -126 0 -125 0 0 -1005z"/>
<path d="M44430 2855 l0 -125 290 0 290 0 0 -880 0 -880 135 0 135 0 0 880 0
880 290 0 290 0 0 125 0 125 -715 0 -715 0 0 -125z"/>
</g>
</svg>
